<svg width="526" height="409" viewBox="0 0 526 409" fill="none" xmlns="http://www.w3.org/2000/svg">
<g clip-path="url(#clip0)">
<path d="M299.507 199.989C311.343 199.989 320.938 190.382 320.938 178.531C320.938 166.681 311.343 157.074 299.507 157.074C287.671 157.074 278.076 166.681 278.076 178.531C278.076 190.382 287.671 199.989 299.507 199.989Z" fill="#E6E6E6"/>
<path d="M352.03 206.105L329.634 183.682C331.351 181.008 332.514 178.017 333.055 174.885C333.596 171.754 333.504 168.545 332.784 165.45C332.064 162.354 330.73 159.435 328.863 156.865C326.995 154.295 324.631 152.126 321.911 150.488C316.789 147.424 310.705 146.398 304.864 147.613C299.022 148.828 293.85 152.195 290.37 157.048C287.168 161.542 285.631 167.013 286.021 172.52C286.412 178.027 288.706 183.226 292.51 187.222C296.314 191.219 301.39 193.764 306.865 194.42C312.34 195.075 317.872 193.801 322.51 190.815L344.906 213.238C345.851 214.183 347.132 214.714 348.468 214.714C349.803 214.713 351.084 214.182 352.028 213.236C352.973 212.291 353.504 211.008 353.504 209.671C353.504 208.334 352.974 207.051 352.03 206.105ZM321.674 182.845C318.899 185.623 315.248 187.352 311.342 187.738C307.437 188.123 303.518 187.14 300.255 184.957C296.992 182.774 294.586 179.526 293.447 175.766C292.308 172.006 292.506 167.967 294.008 164.336C295.509 160.706 298.222 157.71 301.683 155.857C305.144 154.005 309.14 153.412 312.989 154.178C316.838 154.945 320.302 157.024 322.792 160.061C325.282 163.099 326.642 166.906 326.642 170.836C326.645 173.066 326.208 175.276 325.355 177.337C324.503 179.398 323.252 181.27 321.674 182.845Z" fill="#3F3D56"/>
<path d="M514.375 239.181C571.649 302.598 405.62 393.991 271.464 393.991C137.308 393.991 44.4935 323.177 28.5535 239.181C-10.0953 35.5168 357.851 -93.9308 271.464 84.3702C145.545 344.264 469.27 189.238 514.375 239.181Z" fill="#E6E6E6"/>
<path d="M488.676 254.19C545.951 317.607 379.922 409 245.766 409C111.61 409 18.7954 338.186 2.85551 254.19C-35.7933 50.5257 332.153 -78.9219 245.766 99.3791C119.847 359.273 443.571 204.247 488.676 254.19Z" fill="#3F3D56"/>
<path d="M80.089 105.505C39.8997 103.733 8.73872 95.0532 9.14809 85.7442C9.39353 80.1631 20.7675 75.6752 40.3534 73.4317C40.4235 73.4232 40.4946 73.4287 40.5626 73.4478C40.6306 73.4669 40.6941 73.4993 40.7495 73.5431C40.8049 73.5869 40.8512 73.6413 40.8855 73.703C40.9199 73.7648 40.9417 73.8327 40.9497 73.903C40.9578 73.9732 40.9518 74.0443 40.9323 74.1123C40.9127 74.1802 40.88 74.2436 40.8358 74.2988C40.7917 74.354 40.7371 74.3999 40.6752 74.4339C40.6133 74.4679 40.5453 74.4893 40.4751 74.4968C22.0251 76.6104 10.4312 80.9382 10.2178 85.7913C9.84759 94.2094 41.8662 102.747 80.1361 104.434C118.406 106.121 151.05 100.434 151.42 92.0161C151.635 87.1427 140.393 81.7964 122.083 78.0641C122.014 78.0502 121.948 78.0228 121.89 77.9835C121.831 77.9442 121.781 77.8937 121.742 77.8349C121.703 77.7762 121.676 77.7103 121.663 77.6411C121.649 77.5718 121.649 77.5006 121.663 77.4315C121.678 77.3624 121.705 77.2967 121.745 77.2383C121.784 77.1799 121.835 77.1298 121.893 77.091C121.952 77.0521 122.018 77.0253 122.087 77.012C122.156 76.9987 122.228 76.9992 122.297 77.0135C141.731 80.9751 152.736 86.4605 152.49 92.0633C152.081 101.372 120.278 107.276 80.089 105.505Z" fill="#DF63D1"/>
<path d="M44.3949 107.064C47.757 113.458 52.7374 118.857 58.8377 122.719C64.9381 126.581 71.9445 128.772 79.156 129.072C86.3675 129.371 93.5311 127.77 99.9302 124.427C106.329 121.084 111.739 116.117 115.619 110.024C91.8415 110.344 68.0642 109.356 44.3949 107.064Z" fill="#DF63D1"/>
<path d="M120.065 98.7481C122.088 92.6715 122.671 86.2069 121.768 79.8657C120.864 73.5245 118.499 67.481 114.859 62.2133C111.22 56.9456 106.405 52.5983 100.797 49.5157C95.1896 46.433 88.942 44.6995 82.5493 44.4523C76.1565 44.2051 69.794 45.4511 63.9654 48.0916C58.1367 50.7321 53.0019 54.6946 48.9673 59.6656C44.9327 64.6366 42.1091 70.4795 40.7199 76.7321C39.3306 82.9846 39.414 89.475 40.9633 95.6897C67.0874 100.13 93.6765 101.158 120.065 98.7481Z" fill="#DF63D1"/>
<path d="M90.3894 71.0782C93.0505 71.0782 95.2078 68.9183 95.2078 66.2539C95.2078 63.5896 93.0505 61.4297 90.3894 61.4297C87.7283 61.4297 85.571 63.5896 85.571 66.2539C85.571 68.9183 87.7283 71.0782 90.3894 71.0782Z" fill="white"/>
<path d="M65.5908 89.8343C70.026 89.8343 73.6214 86.2344 73.6214 81.7938C73.6214 77.3532 70.026 73.7533 65.5908 73.7533C61.1556 73.7533 57.5601 77.3532 57.5601 81.7938C57.5601 86.2344 61.1556 89.8343 65.5908 89.8343Z" fill="white"/>
<path d="M186.795 81.9582C189.752 81.9582 192.149 79.5583 192.149 76.598C192.149 73.6376 189.752 71.2378 186.795 71.2378C183.838 71.2378 181.442 73.6376 181.442 76.598C181.442 79.5583 183.838 81.9582 186.795 81.9582Z" fill="#DF63D1"/>
<path d="M65.8003 245.984C67.5744 245.984 69.0126 244.544 69.0126 242.768C69.0126 240.992 67.5744 239.552 65.8003 239.552C64.0262 239.552 62.588 240.992 62.588 242.768C62.588 244.544 64.0262 245.984 65.8003 245.984Z" fill="#E6E6E6"/>
<path d="M290.658 356.407C292.432 356.407 293.87 354.967 293.87 353.19C293.87 351.414 292.432 349.974 290.658 349.974C288.884 349.974 287.446 351.414 287.446 353.19C287.446 354.967 288.884 356.407 290.658 356.407Z" fill="#E6E6E6"/>
<path d="M81.3262 183.804C82.2132 183.804 82.9323 183.084 82.9323 182.196C82.9323 181.308 82.2132 180.588 81.3262 180.588C80.4391 180.588 79.72 181.308 79.72 182.196C79.72 183.084 80.4391 183.804 81.3262 183.804Z" fill="#E6E6E6"/>
<path d="M214.099 303.876C214.986 303.876 215.706 303.156 215.706 302.267C215.706 301.379 214.986 300.659 214.099 300.659C213.212 300.659 212.493 301.379 212.493 302.267C212.493 303.156 213.212 303.876 214.099 303.876Z" fill="#E6E6E6"/>
<path d="M455.554 288.331C456.441 288.331 457.16 287.611 457.16 286.723C457.16 285.834 456.441 285.114 455.554 285.114C454.667 285.114 453.948 285.834 453.948 286.723C453.948 287.611 454.667 288.331 455.554 288.331Z" fill="#E6E6E6"/>
<path d="M380.066 336.037C380.953 336.037 381.672 335.317 381.672 334.429C381.672 333.541 380.953 332.821 380.066 332.821C379.179 332.821 378.46 333.541 378.46 334.429C378.46 335.317 379.179 336.037 380.066 336.037Z" fill="#E6E6E6"/>
<path d="M301.366 278.146C302.253 278.146 302.972 277.426 302.972 276.538C302.972 275.65 302.253 274.93 301.366 274.93C300.479 274.93 299.759 275.65 299.759 276.538C299.759 277.426 300.479 278.146 301.366 278.146Z" fill="#E6E6E6"/>
<path d="M199.644 119.481C200.531 119.481 201.25 118.761 201.25 117.872C201.25 116.984 200.531 116.264 199.644 116.264C198.757 116.264 198.038 116.984 198.038 117.872C198.038 118.761 198.757 119.481 199.644 119.481Z" fill="#E6E6E6"/>
<path d="M212.493 40.1478C213.38 40.1478 214.099 39.4278 214.099 38.5397C214.099 37.6515 213.38 36.9316 212.493 36.9316C211.606 36.9316 210.887 37.6515 210.887 38.5397C210.887 39.4278 211.606 40.1478 212.493 40.1478Z" fill="#E6E6E6"/>
<path d="M204.998 374.096C205.885 374.096 206.604 373.376 206.604 372.488C206.604 371.599 205.885 370.88 204.998 370.88C204.111 370.88 203.392 371.599 203.392 372.488C203.392 373.376 204.111 374.096 204.998 374.096Z" fill="#E6E6E6"/>
<path d="M125.762 340.326C126.649 340.326 127.369 339.606 127.369 338.718C127.369 337.829 126.649 337.109 125.762 337.109C124.875 337.109 124.156 337.829 124.156 338.718C124.156 339.606 124.875 340.326 125.762 340.326Z" fill="#E6E6E6"/>
<path d="M376.854 282.434C377.741 282.434 378.46 281.714 378.46 280.826C378.46 279.938 377.741 279.218 376.854 279.218C375.967 279.218 375.247 279.938 375.247 280.826C375.247 281.714 375.967 282.434 376.854 282.434Z" fill="#E6E6E6"/>
<path d="M79.4357 125.324C82.0968 125.324 84.2541 123.164 84.2541 120.499C84.2541 117.835 82.0968 115.675 79.4357 115.675C76.7746 115.675 74.6173 117.835 74.6173 120.499C74.6173 123.164 76.7746 125.324 79.4357 125.324Z" fill="white"/>
<path d="M188.401 194.525C188.401 208.934 166.151 242.508 159.649 252.013C159.453 252.3 159.19 252.535 158.882 252.697C158.575 252.86 158.233 252.945 157.885 252.945C157.537 252.945 157.195 252.86 156.888 252.697C156.58 252.535 156.317 252.3 156.121 252.013C149.618 242.508 127.369 208.934 127.369 194.525C127.369 190.513 128.158 186.54 129.691 182.833C131.225 179.126 133.473 175.757 136.307 172.92C139.14 170.083 142.504 167.832 146.207 166.297C149.909 164.762 153.877 163.971 157.885 163.971C161.892 163.971 165.861 164.762 169.563 166.297C173.266 167.832 176.63 170.083 179.463 172.92C182.297 175.757 184.545 179.126 186.078 182.833C187.612 186.54 188.401 190.513 188.401 194.525Z" fill="white"/>
<path d="M157.885 207.926C166.46 207.926 173.411 200.966 173.411 192.381C173.411 183.796 166.46 176.836 157.885 176.836C149.31 176.836 142.359 183.796 142.359 192.381C142.359 200.966 149.31 207.926 157.885 207.926Z" fill="#DF63D1"/>
<path d="M157.617 269.57C167.523 269.57 175.552 268.01 175.552 266.085C175.552 264.161 167.523 262.601 157.617 262.601C147.712 262.601 139.682 264.161 139.682 266.085C139.682 268.01 147.712 269.57 157.617 269.57Z" fill="white"/>
<path d="M437.324 170.415C437.188 170.679 437.073 170.953 436.98 171.234L411.398 178.351L406.788 173.834L399.071 179.909L406.456 188.7C407.052 189.41 407.863 189.907 408.766 190.117C409.669 190.326 410.615 190.237 411.463 189.862L439.097 177.649C440.035 178.3 441.148 178.651 442.289 178.653C443.43 178.656 444.545 178.31 445.486 177.663C446.426 177.015 447.147 176.097 447.553 175.029C447.96 173.961 448.031 172.795 447.759 171.685C447.487 170.575 446.884 169.575 446.03 168.817C445.177 168.059 444.113 167.579 442.98 167.441C441.847 167.303 440.699 167.514 439.688 168.045C438.678 168.576 437.853 169.403 437.324 170.415H437.324Z" fill="#FFB8B8"/>
<path d="M410.497 178.768L400.895 186.251C400.622 186.464 400.306 186.615 399.969 186.695C399.632 186.775 399.282 186.781 398.942 186.713C398.603 186.645 398.282 186.504 398.002 186.301C397.721 186.098 397.488 185.836 397.318 185.534L391.35 174.96C390.27 173.554 389.79 171.777 390.017 170.018C390.243 168.259 391.157 166.661 392.559 165.576C393.96 164.491 395.734 164.006 397.491 164.228C399.249 164.45 400.847 165.362 401.934 166.762L410.681 175.12C410.932 175.36 411.127 175.65 411.256 175.972C411.384 176.294 411.441 176.64 411.423 176.987C411.406 177.333 411.314 177.671 411.154 177.979C410.994 178.286 410.77 178.555 410.497 178.768V178.768Z" fill="#DF63D1"/>
<path d="M439.777 166.876L449.514 171.262C449.922 171.446 450.24 171.784 450.399 172.203C450.557 172.621 450.543 173.086 450.36 173.494L449.207 176.06C449.343 176.121 449.448 176.234 449.501 176.373C449.554 176.513 449.55 176.667 449.489 176.804L449.028 177.83C448.966 177.966 448.854 178.072 448.714 178.124C448.575 178.177 448.421 178.173 448.285 178.112L447.823 179.138C447.959 179.2 448.065 179.313 448.118 179.452C448.17 179.592 448.166 179.746 448.105 179.882L447.644 180.909C447.583 181.044 447.47 181.15 447.331 181.203C447.192 181.256 447.037 181.252 446.901 181.191L440.676 195.045C440.492 195.454 440.154 195.772 439.736 195.931C439.318 196.09 438.854 196.076 438.446 195.892L428.709 191.506C428.301 191.322 427.983 190.984 427.824 190.565C427.666 190.147 427.68 189.682 427.863 189.274L437.547 167.723C437.731 167.314 438.069 166.996 438.487 166.837C438.905 166.678 439.369 166.692 439.777 166.876Z" fill="#3F3D56"/>
<path d="M430.477 190.141L438.288 193.663C438.68 193.838 439.125 193.851 439.526 193.7C439.927 193.548 440.252 193.243 440.43 192.853L444.037 184.818L445.291 182.033L448.556 174.763C448.73 174.372 448.743 173.927 448.591 173.527C448.44 173.126 448.136 172.802 447.747 172.625L445.291 171.516L439.929 169.103C439.538 168.928 439.094 168.915 438.693 169.068C438.293 169.221 437.969 169.527 437.794 169.918L434.636 176.946L431.039 184.947L429.668 188.003C429.493 188.394 429.48 188.838 429.631 189.239C429.783 189.64 430.087 189.964 430.477 190.141Z" fill="#F2F2F2"/>
<path d="M414.154 289.695L420.718 289.694L423.841 264.346L414.153 264.347L414.154 289.695Z" fill="#FFB8B8"/>
<path d="M412.48 287.549L425.406 287.549H425.407C426.489 287.549 427.56 287.762 428.559 288.176C429.559 288.591 430.467 289.198 431.232 289.964C431.997 290.73 432.604 291.639 433.018 292.64C433.432 293.641 433.645 294.713 433.645 295.796V296.064L412.481 296.065L412.48 287.549Z" fill="#2F2E41"/>
<path d="M431.286 288.087L437.85 288.086L440.973 262.738L431.285 262.739L431.286 288.087Z" fill="#FFB8B8"/>
<path d="M429.612 285.941L442.539 285.941H442.539C443.621 285.941 444.692 286.154 445.691 286.568C446.691 286.983 447.599 287.59 448.364 288.356C449.129 289.122 449.736 290.031 450.15 291.032C450.564 292.032 450.777 293.105 450.777 294.188V294.456L429.613 294.457L429.612 285.941Z" fill="#2F2E41"/>
<path d="M384.713 230.214C386.112 234.364 388.764 237.977 392.303 240.552C395.843 243.126 400.094 244.536 404.468 244.585L404.8 244.59C408.189 244.687 412.167 243.593 416.07 242.023C423.779 238.919 431.184 233.95 433.148 232.583L429.819 264.633L428.469 277.626C428.435 277.962 428.472 278.302 428.577 278.623C428.682 278.944 428.853 279.24 429.079 279.491C429.305 279.742 429.581 279.942 429.889 280.08C430.197 280.218 430.53 280.289 430.868 280.29H439.182C439.715 280.29 440.234 280.114 440.656 279.788C441.078 279.462 441.381 279.005 441.516 278.489L455.243 226.146C455.655 224.579 455.688 222.936 455.34 221.354C454.992 219.772 454.272 218.296 453.241 217.048C452.21 215.799 450.896 214.815 449.41 214.176C447.923 213.536 446.305 213.261 444.691 213.372L416.177 215.328L418.169 207.352L392.717 205.658L392.642 205.712C392.032 206.157 391.437 206.623 390.87 207.111C389.451 208.313 388.193 209.693 387.128 211.217C385.221 213.952 384.006 217.11 383.585 220.418C383.165 223.727 383.552 227.088 384.713 230.214Z" fill="#2F2E41"/>
<path d="M384.713 230.214C386.112 234.364 388.764 237.977 392.303 240.552C395.843 243.126 400.094 244.536 404.468 244.585C408.652 242.465 412.689 240.067 416.552 237.408L416.07 242.023L411.873 282.45C411.839 282.787 411.875 283.126 411.98 283.447C412.085 283.768 412.256 284.064 412.482 284.315C412.708 284.566 412.984 284.767 413.292 284.904C413.6 285.042 413.934 285.114 414.271 285.114H422.585C423.119 285.115 423.637 284.938 424.059 284.612C424.482 284.286 424.784 283.83 424.92 283.313L429.819 264.633L438.647 230.97C439.058 229.403 439.092 227.761 438.743 226.179C438.395 224.597 437.676 223.12 436.644 221.872C435.613 220.624 434.3 219.639 432.813 219C431.326 218.361 429.709 218.085 428.094 218.196L399.58 220.153L401.572 212.177L387.127 211.217C385.221 213.952 384.006 217.11 383.585 220.418C383.165 223.727 383.552 227.088 384.713 230.214Z" fill="#2F2E41"/>
<path d="M390.834 208.96L390.642 208.937L386.201 187.075C386.163 186.885 382.533 168.028 393.662 158.17L393.856 156.821C393.906 156.475 394.03 156.145 394.219 155.852C394.409 155.559 394.659 155.311 394.954 155.125C395.248 154.939 395.58 154.818 395.925 154.773C396.27 154.727 396.622 154.757 396.954 154.86L407.44 158.116C408.033 158.299 408.533 158.705 408.834 159.249C409.136 159.793 409.215 160.432 409.056 161.033L408.037 164.915C409.45 166.577 426.087 186.631 420.292 202.081L417.696 212.24L390.834 208.96Z" fill="#DF63D1"/>
<path d="M434.371 191.898C434.12 192.056 433.882 192.233 433.659 192.429L408.016 185.536L406.339 179.3L396.609 180.603L398.505 191.932C398.658 192.847 399.104 193.688 399.775 194.328C400.446 194.968 401.306 195.373 402.227 195.482L432.225 199.03C432.701 200.068 433.482 200.936 434.464 201.519C435.445 202.103 436.581 202.373 437.719 202.294C438.858 202.215 439.945 201.791 440.837 201.078C441.729 200.365 442.383 199.397 442.712 198.303C443.042 197.209 443.03 196.041 442.68 194.953C442.33 193.866 441.657 192.911 440.751 192.215C439.846 191.52 438.75 191.117 437.61 191.06C436.471 191.004 435.341 191.296 434.371 191.898H434.371Z" fill="#FFB8B8"/>
<path d="M407.028 185.437L394.96 186.993C394.616 187.037 394.268 187.007 393.937 186.904C393.606 186.801 393.302 186.628 393.044 186.397C392.786 186.166 392.581 185.881 392.443 185.564C392.305 185.246 392.237 184.902 392.243 184.555L392.473 172.412C392.257 170.651 392.747 168.877 393.835 167.478C394.923 166.078 396.521 165.168 398.279 164.947C400.036 164.725 401.81 165.211 403.21 166.296C404.611 167.382 405.524 168.98 405.75 170.739L409.039 182.389C409.133 182.723 409.154 183.073 409.101 183.415C409.047 183.758 408.921 184.085 408.73 184.374C408.539 184.663 408.289 184.908 407.995 185.091C407.701 185.275 407.371 185.393 407.028 185.437Z" fill="#DF63D1"/>
<path d="M403.631 151.893C410.893 151.893 416.78 145.998 416.78 138.727C416.78 131.456 410.893 125.562 403.631 125.562C396.369 125.562 390.482 131.456 390.482 138.727C390.482 145.998 396.369 151.893 403.631 151.893Z" fill="#FFB8B8"/>
<path d="M402.939 139.827L401.293 136.825C398.174 149.546 403.683 160.074 403.683 160.074L382.304 150.104L382.507 146.566L380.392 148.969L377.352 147.292L376.951 144.998L374.656 145.567L383.032 130.35C391.16 115.87 402.977 121.399 402.977 121.399C421.777 120.504 419.481 139.075 419.481 139.075L402.939 139.827Z" fill="#2F2E41"/>
<path d="M253.254 237.938C256.286 235.992 252.599 224.817 245.019 212.979C237.439 201.141 228.837 193.121 225.805 195.067C222.774 197.013 226.461 208.187 234.04 220.026C241.62 231.864 250.223 239.883 253.254 237.938Z" fill="#3F3D56"/>
</g>
<defs>
<clipPath id="clip0">
<rect width="526" height="409" fill="white"/>
</clipPath>
</defs>
</svg>
